<svg width="23" height="55" viewBox="0 0 23 55" fill="none" xmlns="http://www.w3.org/2000/svg">
<path d="M22 22.0007C22 27.9479 20.7378 33.2825 18.7455 37.0938C16.7282 40.953 14.1161 43.0007 11.5 43.0007C8.88391 43.0007 6.2718 40.953 4.2545 37.0938C2.26223 33.2825 1 27.9479 1 22.0007C1 16.0535 2.26223 10.7189 4.2545 6.90764C6.2718 3.04845 8.88391 1.00073 11.5 1.00073C14.1161 1.00073 16.7282 3.04845 18.7455 6.90764C20.7378 10.7189 22 16.0535 22 22.0007Z" stroke="#9FBDD6" stroke-width="2"/>
<rect x="10" y="8.00073" width="3" height="8" fill="#9FBDD6"/>
<path d="M10.9697 54.5303C11.2626 54.8232 11.7374 54.8232 12.0303 54.5303L16.8033 49.7574C17.0962 49.4645 17.0962 48.9896 16.8033 48.6967C16.5104 48.4038 16.0355 48.4038 15.7426 48.6967L11.5 52.9393L7.25736 48.6967C6.96447 48.4038 6.48959 48.4038 6.1967 48.6967C5.90381 48.9896 5.90381 49.4645 6.1967 49.7574L10.9697 54.5303ZM10.75 53V54H12.25V53H10.75Z" fill="#9FBDD6"/>
</svg>
